M48
; DRILL file {KiCad (7.0.0)} date Sat Mar  4 17:45:59 2023
; FORMAT={-:-/ absolute / metric / decimal}
; #@! TF.CreationDate,2023-03-04T17:45:59+02:00
; #@! TF.GenerationSoftware,Kicad,Pcbnew,(7.0.0)
; #@! TF.FileFunction,Plated,1,2,PTH
FMAT,2
METRIC
; #@! TA.AperFunction,Plated,PTH,ComponentDrill
T1C0.700
; #@! TA.AperFunction,Plated,PTH,ComponentDrill
T2C0.800
; #@! TA.AperFunction,Plated,PTH,ComponentDrill
T3C0.900
; #@! TA.AperFunction,Plated,PTH,ComponentDrill
T4C1.000
; #@! TA.AperFunction,Plated,PTH,ComponentDrill
T5C1.100
; #@! TA.AperFunction,Plated,PTH,ComponentDrill
T6C1.300
; #@! TA.AperFunction,Plated,PTH,ComponentDrill
T7C1.600
; #@! TA.AperFunction,Plated,PTH,ComponentDrill
T8C2.520
; #@! TA.AperFunction,Plated,PTH,ComponentDrill
T9C3.200
%
G90
G05
T1
X138.43Y-92.71
X138.43Y-95.25
X139.7Y-93.98
T2
X87.63Y-67.31
X87.63Y-77.47
X87.63Y-107.95
X87.63Y-118.11
X97.79Y-93.98
X107.95Y-93.98
X118.65Y-93.98
X120.65Y-93.98
X125.73Y-67.31
X125.73Y-77.47
X125.73Y-102.87
X125.73Y-113.03
X138.43Y-67.31
X138.43Y-77.47
X138.43Y-102.87
X138.43Y-113.03
X138.43Y-120.65
X138.43Y-130.81
X161.29Y-118.11
X161.29Y-121.61
X162.56Y-92.71
X164.56Y-92.71
X172.72Y-67.31
X172.72Y-77.47
X173.99Y-110.49
X173.99Y-120.65
X181.61Y-110.49
X181.61Y-120.65
T3
X172.72Y-84.4
X175.26Y-84.4
T4
X100.33Y-81.28
X102.87Y-81.28
X105.41Y-81.28
X148.59Y-113.02
X148.59Y-115.56
X148.59Y-118.1
X148.59Y-120.64
X173.99Y-92.71
X173.99Y-95.25
X173.99Y-97.79
T5
X181.61Y-67.31
X181.61Y-77.47
T6
X195.885Y-67.35
X195.885Y-72.35
X195.885Y-123.23
X195.885Y-128.23
T7
X87.63Y-93.98
X148.59Y-88.9
X148.59Y-102.87
X187.5Y-92.71
T8
X76.2Y-67.31
X76.2Y-93.98
X76.2Y-125.73
X109.22Y-135.89
X148.5Y-136.0
X195.75Y-114.0
T9
X68.7Y-59.6
X68.7Y-136.4
X195.5Y-59.6
X195.5Y-136.4
T0
M30
