%TF.GenerationSoftware,KiCad,Pcbnew,(7.0.0)*%
%TF.CreationDate,2023-03-04T17:45:57+02:00*%
%TF.ProjectId,Small Signal Amp with BJT,536d616c-6c20-4536-9967-6e616c20416d,rev?*%
%TF.SameCoordinates,Original*%
%TF.FileFunction,Soldermask,Bot*%
%TF.FilePolarity,Negative*%
%FSLAX46Y46*%
G04 Gerber Fmt 4.6, Leading zero omitted, Abs format (unit mm)*
G04 Created by KiCad (PCBNEW (7.0.0)) date 2023-03-04 17:45:57*
%MOMM*%
%LPD*%
G01*
G04 APERTURE LIST*
%ADD10C,4.500000*%
%ADD11C,2.800000*%
%ADD12R,1.700000X1.700000*%
%ADD13O,1.700000X1.700000*%
%ADD14C,5.700000*%
%ADD15C,3.600000*%
%ADD16C,1.600000*%
%ADD17O,1.600000X1.600000*%
%ADD18R,2.200000X2.200000*%
%ADD19O,2.200000X2.200000*%
%ADD20R,1.600000X1.600000*%
%ADD21R,2.600000X2.600000*%
%ADD22C,2.600000*%
%ADD23O,1.200000X1.600000*%
%ADD24O,1.200000X1.200000*%
%ADD25R,1.800000X1.800000*%
%ADD26C,1.800000*%
G04 APERTURE END LIST*
D10*
%TO.C,TP8*%
X148500000Y-136000000D03*
%TD*%
D11*
%TO.C,TP7*%
X148590000Y-102870000D03*
%TD*%
%TO.C,TP6*%
X148590000Y-88900000D03*
%TD*%
%TO.C,TP5*%
X87630000Y-93980000D03*
%TD*%
D10*
%TO.C,TP4*%
X195750000Y-114000000D03*
%TD*%
%TO.C,TP3*%
X109220000Y-135890000D03*
%TD*%
%TO.C,TP2*%
X76200000Y-125730000D03*
%TD*%
D11*
%TO.C,TP1*%
X187500000Y-92710000D03*
%TD*%
D10*
%TO.C,J6*%
X76200000Y-67310000D03*
%TD*%
%TO.C,J5*%
X76200000Y-93980000D03*
%TD*%
D12*
%TO.C,J2*%
X148589999Y-120639999D03*
D13*
X148589999Y-118099999D03*
X148589999Y-115559999D03*
X148589999Y-113019999D03*
%TD*%
D14*
%TO.C,H3*%
X68700000Y-59600000D03*
D15*
X68700000Y-59600000D03*
%TD*%
D16*
%TO.C,R2*%
X125730000Y-102870000D03*
D17*
X125729999Y-113029999D03*
%TD*%
D16*
%TO.C,R1*%
X125730000Y-67310000D03*
D17*
X125729999Y-77469999D03*
%TD*%
D16*
%TO.C,Ry1*%
X173990000Y-110490000D03*
D17*
X173989999Y-120649999D03*
%TD*%
D18*
%TO.C,D1*%
X181609999Y-67309999D03*
D19*
X181609999Y-77469999D03*
%TD*%
D14*
%TO.C,H1*%
X195500000Y-136400000D03*
D15*
X195500000Y-136400000D03*
%TD*%
D20*
%TO.C,C1*%
X120649999Y-93979999D03*
D16*
X118650000Y-93980000D03*
%TD*%
D21*
%TO.C,J4*%
X195884999Y-72349999D03*
D22*
X195885000Y-67350000D03*
%TD*%
D23*
%TO.C,Q1*%
X138429999Y-95249999D03*
D24*
X139699999Y-93979999D03*
X138429999Y-92709999D03*
%TD*%
D16*
%TO.C,R13*%
X172720000Y-67310000D03*
D17*
X172719999Y-77469999D03*
%TD*%
D14*
%TO.C,H2*%
X68700000Y-136400000D03*
D15*
X68700000Y-136400000D03*
%TD*%
%TO.C,H4*%
X195500000Y-59600000D03*
D14*
X195500000Y-59600000D03*
%TD*%
D21*
%TO.C,J7*%
X195884999Y-128229999D03*
D22*
X195885000Y-123230000D03*
%TD*%
D12*
%TO.C,J1*%
X105409999Y-81279999D03*
D13*
X102869999Y-81279999D03*
X100329999Y-81279999D03*
%TD*%
D16*
%TO.C,R3*%
X138430000Y-102870000D03*
D17*
X138429999Y-113029999D03*
%TD*%
D16*
%TO.C,R6*%
X181610000Y-110490000D03*
D17*
X181609999Y-120649999D03*
%TD*%
D16*
%TO.C,R5*%
X138430000Y-67310000D03*
D17*
X138429999Y-77469999D03*
%TD*%
D16*
%TO.C,RD1*%
X87630000Y-67310000D03*
D17*
X87629999Y-77469999D03*
%TD*%
D16*
%TO.C,Rx1*%
X97790000Y-93980000D03*
D17*
X107949999Y-93979999D03*
%TD*%
D16*
%TO.C,RD2*%
X87630000Y-107950000D03*
D17*
X87629999Y-118109999D03*
%TD*%
D20*
%TO.C,C3*%
X162559999Y-92709999D03*
D16*
X164560000Y-92710000D03*
%TD*%
D25*
%TO.C,D2*%
X175259999Y-84399999D03*
D26*
X172720000Y-84400000D03*
%TD*%
D20*
%TO.C,C2*%
X161289999Y-118109999D03*
D16*
X161290000Y-121610000D03*
%TD*%
D12*
%TO.C,J3*%
X173989999Y-92709999D03*
D13*
X173989999Y-95249999D03*
X173989999Y-97789999D03*
%TD*%
D16*
%TO.C,R4*%
X138430000Y-120650000D03*
D17*
X138429999Y-130809999D03*
%TD*%
M02*
