%TF.GenerationSoftware,KiCad,Pcbnew,(7.0.0)*%
%TF.CreationDate,2023-03-04T17:45:56+02:00*%
%TF.ProjectId,Small Signal Amp with BJT,536d616c-6c20-4536-9967-6e616c20416d,rev?*%
%TF.SameCoordinates,Original*%
%TF.FileFunction,Copper,L1,Top*%
%TF.FilePolarity,Positive*%
%FSLAX46Y46*%
G04 Gerber Fmt 4.6, Leading zero omitted, Abs format (unit mm)*
G04 Created by KiCad (PCBNEW (7.0.0)) date 2023-03-04 17:45:56*
%MOMM*%
%LPD*%
G01*
G04 APERTURE LIST*
%TA.AperFunction,ComponentPad*%
%ADD10C,4.500000*%
%TD*%
%TA.AperFunction,ComponentPad*%
%ADD11C,2.800000*%
%TD*%
%TA.AperFunction,ComponentPad*%
%ADD12R,1.700000X1.700000*%
%TD*%
%TA.AperFunction,ComponentPad*%
%ADD13O,1.700000X1.700000*%
%TD*%
%TA.AperFunction,ComponentPad*%
%ADD14C,3.600000*%
%TD*%
%TA.AperFunction,ConnectorPad*%
%ADD15C,5.700000*%
%TD*%
%TA.AperFunction,ComponentPad*%
%ADD16C,1.600000*%
%TD*%
%TA.AperFunction,ComponentPad*%
%ADD17O,1.600000X1.600000*%
%TD*%
%TA.AperFunction,ComponentPad*%
%ADD18R,2.200000X2.200000*%
%TD*%
%TA.AperFunction,ComponentPad*%
%ADD19O,2.200000X2.200000*%
%TD*%
%TA.AperFunction,ComponentPad*%
%ADD20R,1.600000X1.600000*%
%TD*%
%TA.AperFunction,ComponentPad*%
%ADD21R,2.600000X2.600000*%
%TD*%
%TA.AperFunction,ComponentPad*%
%ADD22C,2.600000*%
%TD*%
%TA.AperFunction,ComponentPad*%
%ADD23O,1.200000X1.600000*%
%TD*%
%TA.AperFunction,ComponentPad*%
%ADD24O,1.200000X1.200000*%
%TD*%
%TA.AperFunction,ComponentPad*%
%ADD25R,1.800000X1.800000*%
%TD*%
%TA.AperFunction,ComponentPad*%
%ADD26C,1.800000*%
%TD*%
%TA.AperFunction,Conductor*%
%ADD27C,0.600000*%
%TD*%
%TA.AperFunction,Conductor*%
%ADD28C,1.200000*%
%TD*%
G04 APERTURE END LIST*
D10*
%TO.P,TP8,1,1*%
%TO.N,GND*%
X148500000Y-136000000D03*
%TD*%
D11*
%TO.P,TP7,1,1*%
%TO.N,Net-(J2-Pin_4)*%
X148590000Y-102870000D03*
%TD*%
%TO.P,TP6,1,1*%
%TO.N,Net-(Q1-C)*%
X148590000Y-88900000D03*
%TD*%
%TO.P,TP5,1,1*%
%TO.N,IN1*%
X87630000Y-93980000D03*
%TD*%
D10*
%TO.P,TP4,1,1*%
%TO.N,GND*%
X195750000Y-114000000D03*
%TD*%
%TO.P,TP3,1,1*%
%TO.N,GND*%
X109220000Y-135890000D03*
%TD*%
%TO.P,TP2,1,1*%
%TO.N,GND*%
X76200000Y-125730000D03*
%TD*%
D11*
%TO.P,TP1,1,1*%
%TO.N,Net-(J3-Pin_1)*%
X187500000Y-92710000D03*
%TD*%
D10*
%TO.P,J6,1,Pin_1*%
%TO.N,IN2*%
X76200000Y-67310000D03*
%TD*%
%TO.P,J5,1,Pin_1*%
%TO.N,IN1*%
X76200000Y-93980000D03*
%TD*%
D12*
%TO.P,J2,1,Pin_1*%
%TO.N,Net-(J2-Pin_1)*%
X148589999Y-120639999D03*
D13*
%TO.P,J2,2,Pin_2*%
%TO.N,Net-(J2-Pin_2)*%
X148589999Y-118099999D03*
%TO.P,J2,3,Pin_3*%
X148589999Y-115559999D03*
%TO.P,J2,4,Pin_4*%
%TO.N,Net-(J2-Pin_4)*%
X148589999Y-113019999D03*
%TD*%
D14*
%TO.P,H3,1*%
%TO.N,N/C*%
X68700000Y-59600000D03*
D15*
X68700000Y-59600000D03*
%TD*%
D16*
%TO.P,R2,1*%
%TO.N,Net-(Q1-B)*%
X125730000Y-102870000D03*
D17*
%TO.P,R2,2*%
%TO.N,GND*%
X125729999Y-113029999D03*
%TD*%
D16*
%TO.P,R1,1*%
%TO.N,Net-(D1-K)*%
X125730000Y-67310000D03*
D17*
%TO.P,R1,2*%
%TO.N,Net-(Q1-B)*%
X125729999Y-77469999D03*
%TD*%
D16*
%TO.P,Ry1,1*%
%TO.N,Net-(J3-Pin_3)*%
X173990000Y-110490000D03*
D17*
%TO.P,Ry1,2*%
%TO.N,GND*%
X173989999Y-120649999D03*
%TD*%
D18*
%TO.P,D1,1,K*%
%TO.N,Net-(D1-K)*%
X181609999Y-67309999D03*
D19*
%TO.P,D1,2,A*%
%TO.N,GND*%
X181609999Y-77469999D03*
%TD*%
D15*
%TO.P,H1,1*%
%TO.N,N/C*%
X195500000Y-136400000D03*
D14*
X195500000Y-136400000D03*
%TD*%
D20*
%TO.P,C1,1*%
%TO.N,Net-(Q1-B)*%
X120649999Y-93979999D03*
D16*
%TO.P,C1,2*%
%TO.N,Net-(J1-Pin_1)*%
X118650000Y-93980000D03*
%TD*%
D21*
%TO.P,J4,1,Pin_1*%
%TO.N,Net-(D1-K)*%
X195884999Y-72349999D03*
D22*
%TO.P,J4,2,Pin_2*%
X195885000Y-67350000D03*
%TD*%
D23*
%TO.P,Q1,1,E*%
%TO.N,Net-(J2-Pin_4)*%
X138429999Y-95249999D03*
D24*
%TO.P,Q1,2,B*%
%TO.N,Net-(Q1-B)*%
X139699999Y-93979999D03*
%TO.P,Q1,3,C*%
%TO.N,Net-(Q1-C)*%
X138429999Y-92709999D03*
%TD*%
D16*
%TO.P,R13,1*%
%TO.N,Net-(D1-K)*%
X172720000Y-67310000D03*
D17*
%TO.P,R13,2*%
%TO.N,Net-(D2-A)*%
X172719999Y-77469999D03*
%TD*%
D14*
%TO.P,H2,1*%
%TO.N,N/C*%
X68700000Y-136400000D03*
D15*
X68700000Y-136400000D03*
%TD*%
D14*
%TO.P,H4,1*%
%TO.N,N/C*%
X195500000Y-59600000D03*
D15*
X195500000Y-59600000D03*
%TD*%
D21*
%TO.P,J7,1,Pin_1*%
%TO.N,GND*%
X195884999Y-128229999D03*
D22*
%TO.P,J7,2,Pin_2*%
X195885000Y-123230000D03*
%TD*%
D12*
%TO.P,J1,1,Pin_1*%
%TO.N,Net-(J1-Pin_1)*%
X105409999Y-81279999D03*
D13*
%TO.P,J1,2,Pin_2*%
X102869999Y-81279999D03*
%TO.P,J1,3,Pin_3*%
%TO.N,IN1*%
X100329999Y-81279999D03*
%TD*%
D16*
%TO.P,R3,1*%
%TO.N,Net-(J2-Pin_4)*%
X138430000Y-102870000D03*
D17*
%TO.P,R3,2*%
%TO.N,Net-(J2-Pin_1)*%
X138429999Y-113029999D03*
%TD*%
D16*
%TO.P,R6,1*%
%TO.N,Net-(J3-Pin_1)*%
X181610000Y-110490000D03*
D17*
%TO.P,R6,2*%
%TO.N,GND*%
X181609999Y-120649999D03*
%TD*%
D16*
%TO.P,R5,1*%
%TO.N,Net-(D1-K)*%
X138430000Y-67310000D03*
D17*
%TO.P,R5,2*%
%TO.N,Net-(Q1-C)*%
X138429999Y-77469999D03*
%TD*%
D16*
%TO.P,RD1,1*%
%TO.N,IN2*%
X87630000Y-67310000D03*
D17*
%TO.P,RD1,2*%
%TO.N,IN1*%
X87629999Y-77469999D03*
%TD*%
D16*
%TO.P,Rx1,1*%
%TO.N,IN1*%
X97790000Y-93980000D03*
D17*
%TO.P,Rx1,2*%
%TO.N,Net-(J1-Pin_1)*%
X107949999Y-93979999D03*
%TD*%
D16*
%TO.P,RD2,1*%
%TO.N,IN1*%
X87630000Y-107950000D03*
D17*
%TO.P,RD2,2*%
%TO.N,GND*%
X87629999Y-118109999D03*
%TD*%
D20*
%TO.P,C3,1*%
%TO.N,Net-(Q1-C)*%
X162559999Y-92709999D03*
D16*
%TO.P,C3,2*%
%TO.N,Net-(J3-Pin_1)*%
X164560000Y-92710000D03*
%TD*%
D25*
%TO.P,D2,1,K*%
%TO.N,GND*%
X175259999Y-84399999D03*
D26*
%TO.P,D2,2,A*%
%TO.N,Net-(D2-A)*%
X172720000Y-84400000D03*
%TD*%
D20*
%TO.P,C2,1*%
%TO.N,Net-(J2-Pin_2)*%
X161289999Y-118109999D03*
D16*
%TO.P,C2,2*%
%TO.N,GND*%
X161290000Y-121610000D03*
%TD*%
D12*
%TO.P,J3,1,Pin_1*%
%TO.N,Net-(J3-Pin_1)*%
X173989999Y-92709999D03*
D13*
%TO.P,J3,2,Pin_2*%
X173989999Y-95249999D03*
%TO.P,J3,3,Pin_3*%
%TO.N,Net-(J3-Pin_3)*%
X173989999Y-97789999D03*
%TD*%
D16*
%TO.P,R4,1*%
%TO.N,Net-(J2-Pin_1)*%
X138430000Y-120650000D03*
D17*
%TO.P,R4,2*%
%TO.N,GND*%
X138429999Y-130809999D03*
%TD*%
D27*
%TO.N,Net-(J3-Pin_1)*%
X173990000Y-92710000D02*
X187500000Y-92710000D01*
D28*
%TO.N,GND*%
X182300000Y-84400000D02*
X180920000Y-84400000D01*
D27*
X161290000Y-121610000D02*
X161290000Y-135890000D01*
X138430000Y-130810000D02*
X138430000Y-135890000D01*
D28*
X87630000Y-125730000D02*
X92710000Y-125730000D01*
D27*
X173990000Y-120650000D02*
X173990000Y-135890000D01*
D28*
X180920000Y-84400000D02*
X175260000Y-84400000D01*
X173990000Y-135890000D02*
X182880000Y-135890000D01*
X195885000Y-113995000D02*
X195885000Y-86665000D01*
D27*
X87630000Y-118110000D02*
X87630000Y-125730000D01*
D28*
X161290000Y-135890000D02*
X173990000Y-135890000D01*
D27*
X181610000Y-77470000D02*
X181610000Y-83710000D01*
D28*
X125730000Y-135890000D02*
X138430000Y-135890000D01*
X191730000Y-128230000D02*
X195885000Y-128230000D01*
X195885000Y-123230000D02*
X195885000Y-113995000D01*
X102870000Y-135890000D02*
X109220000Y-135890000D01*
D27*
X173990000Y-120650000D02*
X181610000Y-120650000D01*
X125730000Y-113030000D02*
X125730000Y-135890000D01*
D28*
X190540000Y-128230000D02*
X191730000Y-128230000D01*
X182880000Y-135890000D02*
X190540000Y-128230000D01*
X138430000Y-135890000D02*
X158750000Y-135890000D01*
X158750000Y-135890000D02*
X161290000Y-135890000D01*
X195885000Y-86665000D02*
X193620000Y-84400000D01*
X109220000Y-135890000D02*
X125730000Y-135890000D01*
X92710000Y-125730000D02*
X102870000Y-135890000D01*
X195885000Y-123230000D02*
X195885000Y-128230000D01*
X76200000Y-125730000D02*
X87630000Y-125730000D01*
X193620000Y-84400000D02*
X182300000Y-84400000D01*
D27*
%TO.N,Net-(Q1-C)*%
X138430000Y-88900000D02*
X153670000Y-88900000D01*
X138430000Y-77470000D02*
X138430000Y-88900000D01*
X157480000Y-92710000D02*
X162560000Y-92710000D01*
X153670000Y-88900000D02*
X157480000Y-92710000D01*
X138430000Y-88900000D02*
X138430000Y-92710000D01*
%TO.N,Net-(J3-Pin_1)*%
X164560000Y-92710000D02*
X173990000Y-92710000D01*
X173990000Y-92710000D02*
X173990000Y-95250000D01*
X181610000Y-110490000D02*
X181610000Y-92710000D01*
D28*
%TO.N,Net-(D1-K)*%
X195885000Y-67350000D02*
X181650000Y-67350000D01*
X181650000Y-67350000D02*
X181610000Y-67310000D01*
X195885000Y-67350000D02*
X195885000Y-72350000D01*
X172720000Y-67310000D02*
X138430000Y-67310000D01*
X181610000Y-67310000D02*
X172720000Y-67310000D01*
X138430000Y-67310000D02*
X125730000Y-67310000D01*
D27*
%TO.N,Net-(D2-A)*%
X172720000Y-77470000D02*
X172720000Y-84400000D01*
%TO.N,IN1*%
X76200000Y-93980000D02*
X87630000Y-93980000D01*
X100330000Y-85090000D02*
X100330000Y-81280000D01*
X97790000Y-93980000D02*
X97790000Y-87630000D01*
X87630000Y-93980000D02*
X97790000Y-93980000D01*
X87630000Y-93980000D02*
X87630000Y-107950000D01*
X97790000Y-87630000D02*
X100330000Y-85090000D01*
X87630000Y-77470000D02*
X87630000Y-93980000D01*
%TO.N,Net-(J2-Pin_1)*%
X138440000Y-120640000D02*
X138430000Y-120650000D01*
X138430000Y-113030000D02*
X138430000Y-120650000D01*
X148590000Y-120640000D02*
X138440000Y-120640000D01*
%TO.N,Net-(J2-Pin_4)*%
X148590000Y-113020000D02*
X148590000Y-102870000D01*
X138430000Y-102870000D02*
X138430000Y-95250000D01*
X148590000Y-102870000D02*
X138430000Y-102870000D01*
%TO.N,Net-(J3-Pin_3)*%
X173990000Y-110490000D02*
X173990000Y-97790000D01*
%TO.N,IN2*%
X76200000Y-67310000D02*
X87630000Y-67310000D01*
%TO.N,Net-(Q1-B)*%
X125730000Y-93980000D02*
X125759520Y-93950480D01*
X125730000Y-93980000D02*
X125730000Y-77470000D01*
X139670480Y-93950480D02*
X139700000Y-93980000D01*
X125730000Y-102870000D02*
X125730000Y-93980000D01*
X125759520Y-93950480D02*
X139670480Y-93950480D01*
X120679520Y-93950480D02*
X125759520Y-93950480D01*
X120650000Y-93980000D02*
X120679520Y-93950480D01*
%TO.N,Net-(J1-Pin_1)*%
X107950000Y-87630000D02*
X105410000Y-85090000D01*
X107950000Y-93980000D02*
X107950000Y-87630000D01*
X105410000Y-81280000D02*
X102870000Y-81280000D01*
X105410000Y-85090000D02*
X105410000Y-81280000D01*
X107950000Y-93980000D02*
X118650000Y-93980000D01*
%TO.N,Net-(J2-Pin_2)*%
X148590000Y-115560000D02*
X148590000Y-118100000D01*
X161280000Y-118100000D02*
X161290000Y-118110000D01*
X148590000Y-118100000D02*
X161280000Y-118100000D01*
%TD*%
M02*
